<?xml version="1.0" encoding="UTF-8" standalone="no"?>
<svg
   width="2.9998426in"
   height="3in"
   viewBox="0 0 76.196001 76.2"
   version="1.1"
   id="svg3"
   sodipodi:docname="KM_Logo_only.svg"
   inkscape:version="1.4.2 (ebf0e94, 2025-05-08)"
   xmlns:inkscape="http://www.inkscape.org/namespaces/inkscape"
   xmlns:sodipodi="http://sodipodi.sourceforge.net/DTD/sodipodi-0.dtd"
   xmlns="http://www.w3.org/2000/svg"
   xmlns:svg="http://www.w3.org/2000/svg">
  <defs
     id="defs3" />
  <sodipodi:namedview
     id="namedview3"
     pagecolor="#ffffff"
     bordercolor="#000000"
     borderopacity="0.25"
     inkscape:showpageshadow="2"
     inkscape:pageopacity="0.0"
     inkscape:pagecheckerboard="0"
     inkscape:deskcolor="#d1d1d1"
     inkscape:document-units="mm"
     showgrid="false"
     inkscape:zoom="0.8943564"
     inkscape:cx="143.67874"
     inkscape:cy="144.2378"
     inkscape:window-width="1920"
     inkscape:window-height="1043"
     inkscape:window-x="0"
     inkscape:window-y="0"
     inkscape:window-maximized="1"
     inkscape:current-layer="svg3" />
  <g
     id="path17"
     transform="matrix(0.30958491,0,0,-0.30958491,0.05417736,0.05417736)"
     style="stroke:#ff0000;stroke-opacity:1">
    <path
       id="path17_f0000"
       d="m 188.57453,-47.77176 -14.38517,-8.30234 6.11746,-10.57713 c 0.54707,-0.96356 0.22064,-2.18784 -0.74311,-2.73472 -0.95042,-0.5603 -2.18741,-0.23406 -2.7342,0.72968 l -6.10919,10.58023 -6.70811,-3.8716 -7.26571,-4.19354 -0.41031,-0.23668 v -37.23855 l 32.23834,-18.6061 0.41031,0.23667 c 2.42294,1.39837 4.84587,2.79673 7.26881,4.1951 l 5.60741,3.23649 -11.21585,6.47713 -3.90468,2.25567 -0.30127,0.17364 c -0.96355,0.56019 -1.28881,1.77073 -0.74155,2.7342 0.0363,0.0623 0.0959,0.0981 0.13745,0.15502 0.32033,0.4388 0.774,0.71139 1.28003,0.79634 0.443,0.0744 0.90948,0.0298 1.33015,-0.20877 l 15.25903,-8.8129 v 16.96382 c 0,1.10661 0.89834,2.00504 2.00504,2.00504 1.10661,0 2.00505,-0.89834 2.00505,-2.00504 v -17.15606 l 13.09841,7.55975 v 37.23855 z"
       stroke="#ff0000"
       stroke-width="0.35 px"
       style="fill:#1a1a1a;fill-opacity:1;fill-rule:evenodd;stroke:#ff0000;stroke-width:0.35;stroke-linecap:square;stroke-miterlimit:4;stroke-dasharray:none;stroke-opacity:1" />
    <title
       id="title1">b'path17'</title>
  </g>
  <g
     id="path36"
     transform="matrix(0.30958491,0,0,-0.30958491,0.05417736,0.05417736)">
    <path
       id="path36_f0000"
       d="M 20.480925,0 C 9.166205,0 0,-9.17959 0,-20.49436 v -204.81075 c 0,-11.31468 9.166205,-20.48092 20.480925,-20.48092 H 225.2922 c 11.31477,0 20.48091,9.16624 20.48091,20.48092 V -20.49436 C 245.78211,-9.17959 236.60697,0 225.2922,0 Z"
       stroke="#ff0000"
       stroke-width="0.35 px"
       style="fill:#211e1e;fill-opacity:1;fill-rule:evenodd;stroke-width:0.35;stroke-linecap:square;stroke-miterlimit:4;stroke-dasharray:none" />
    <title
       id="title2">b'path36'</title>
  </g>
  <g
     id="path023"
     transform="matrix(0.30958491,0,0,-0.30958491,0.05417736,0.05417736)">
    <path
       id="path023_f0000"
       d="M 20.480925,-13.33304 H 225.2922 c 1.91406,0 3.71073,-0.75456 5.06479,-2.10891 1.34112,-1.34112 2.0836,-3.13842 2.0836,-5.05241 v -204.81075 c 0,-3.94513 -3.20317,-7.1484 -7.14839,-7.1484 H 20.480925 c -3.94515,0 -7.14789,3.20327 -7.14789,7.1484 v 1.90428 l 75.55146,43.62524 c 19.923455,-11.87342 45.508305,-12.91687 67.021755,-0.49196 20.31444,11.72401 32.04002,32.59964 33.01451,54.41683 l -27.09137,-15.64194 -1.87378,3.22926 c -0.54688,0.96374 -1.77064,1.28851 -2.7342,0.72916 -0.9628,-0.54688 -1.28863,-1.78368 -0.74155,-2.7342 l 1.87482,-3.23081 -20.42925,-11.79515 -35.71513,61.87323 20.42769,11.78998 1.86243,-3.23546 c 0.55992,-0.96375 1.78419,-1.28998 2.73471,-0.72968 0.96375,0.55982 1.28965,1.7842 0.74259,2.73472 l -1.86811,3.23443 26.92032,15.53755 c -9.66101,4.94704 -20.43774,7.47385 -31.32418,7.3055 -10.88643,-0.16835 -21.882765,-3.03185 -31.982025,-8.86458 -21.51154,-12.41493 -33.39878,-35.09019 -33.0786,-58.28068 l -43.31209,-25.00415 v 128.43918 c 0,1.91399 0.74187,3.71129 2.096,5.05241 1.34107,1.35416 3.13789,2.10891 5.05189,2.10891 z"
       stroke="#ff0000"
       stroke-width="0.35 px"
       style="fill:#211e1e;fill-opacity:1;fill-rule:evenodd;stroke-width:0.35;stroke-linecap:square;stroke-miterlimit:4;stroke-dasharray:none" />
    <title
       id="title3">b'path023'</title>
  </g>
</svg>
